<?xml version="1.0" standalone="no"?>
<!DOCTYPE svg PUBLIC "-//W3C//DTD SVG 20010904//EN"
 "http://www.w3.org/TR/2001/REC-SVG-20010904/DTD/svg10.dtd">
<svg version="1.0" xmlns="http://www.w3.org/2000/svg"
 width="300.000000pt" height="300.000000pt" viewBox="0 0 300.000000 300.000000"
 preserveAspectRatio="xMidYMid meet">
<metadata>
Created by potrace 1.14, written by Peter Selinger 2001-2017
</metadata>
<g transform="translate(0.000000,300.000000) scale(0.100000,-0.100000)"
fill="#000000" stroke="none">
<path d="M1443 2546 c-18 -8 -47 -22 -65 -30 -18 -8 -96 -40 -173 -72 -227
-92 -340 -138 -525 -214 -96 -39 -215 -88 -265 -108 -49 -19 -95 -43 -102 -51
-15 -19 -17 -90 -3 -125 9 -25 14 -26 80 -26 l70 0 0 -45 c0 -32 6 -51 20 -65
20 -20 33 -20 1013 -20 592 0 998 4 1007 10 8 5 17 31 20 62 l5 53 70 3 c40 2
73 8 77 15 13 20 9 134 -4 145 -11 8 -247 107 -668 278 -58 23 -188 77 -290
119 -102 42 -196 79 -210 81 -14 2 -40 -2 -57 -10z"/>
<path d="M700 1193 l0 -513 -87 0 c-49 0 -98 -3 -110 -6 -29 -8 -45 -51 -41
-115 l3 -54 1028 -3 1027 -2 0 70 c0 101 -12 110 -135 110 l-95 0 -2 512 -3
512 -22 -1 c-13 0 -84 -1 -158 -2 l-135 -1 0 -510 0 -510 -160 0 -160 0 -2
512 -3 512 -155 -2 -155 -2 -3 -510 -2 -510 -155 0 -155 0 -2 512 -3 511 -157
1 -158 1 0 -512z"/>
<path d="M372 405 c-58 -25 -92 -149 -60 -220 l11 -25 1167 0 c1019 0 1169 2
1180 15 8 10 11 41 9 92 -5 88 -23 125 -73 143 -19 7 -386 10 -1115 10 -918
-1 -1091 -3 -1119 -15z"/>
</g>
</svg>
